IKResults
version=1
nRows=8
nColumns=40
inDegrees=yes

Units are S.I. units (second, meters, Newtons, ...)
Angles are in degrees.

endheader
time	pelvis_tilt	pelvis_list	pelvis_rotation	pelvis_tx	pelvis_ty	pelvis_tz	hip_flexion_r	hip_adduction_r	hip_rotation_r	knee_angle_r	knee_angle_r_beta	ankle_angle_r	subtalar_angle_r	mtp_angle_r	hip_flexion_l	hip_adduction_l	hip_rotation_l	knee_angle_l	knee_angle_l_beta	ankle_angle_l	subtalar_angle_l	mtp_angle_l	lumbar_extension	lumbar_bending	lumbar_rotation	arm_flex_r	arm_add_r	arm_rot_r	elbow_flex_r	pro_sup_r	wrist_flex_r	wrist_dev_r	arm_flex_l	arm_add_l	arm_rot_l	elbow_flex_l	pro_sup_l	wrist_flex_l	wrist_dev_l
      0.25000000	     -2.33192231	     -2.26092791	      3.46524936	     -0.70832400	      0.91376175	     -0.98973868	      2.92226521	      5.00707186	    -13.10346074	    -16.14116837	     -0.28171653	     14.24725768	    -11.51417041	      5.45151174	     23.97954563	      2.18162313	      1.82144105	    -48.66492811	     -0.84936323	     14.14131987	     18.92991404	     17.85087551	     -4.00232684	      2.37274324	     -0.54204043	     -6.44569760	    -13.32035670	      0.78118517	     39.78168384	     89.95437384	      0.00000000	      0.00000000	     -0.74807227	      6.34773517	     12.09194921	     20.27180408	     89.95437384	      0.00000000	      0.00000000
      0.26000000	     -2.38694253	     -2.32677935	      3.30986055	     -0.69675707	      0.91227978	     -0.98888477	      2.16249583	      5.16989427	    -13.33355424	    -16.11260079	     -0.28121793	     14.59595050	    -11.53173352	      5.32863041	     25.34074232	      2.35292275	      2.00431672	    -47.11717699	     -0.82234987	     14.19525924	     18.99173440	     17.84214783	     -3.86283732	      2.32253678	     -0.23432345	     -6.16694997	    -13.42403088	      0.78201688	     40.42810306	     89.95437384	      0.00000000	      0.00000000	     -1.83981877	      6.58904667	     12.21809551	     19.56716567	     89.95437384	      0.00000000	      0.00000000
      0.27000000	     -1.86681450	     -1.96652059	      2.87089046	     -0.68428466	      0.91167278	     -0.98834642	      0.35868019	      4.99400516	    -12.46639165	    -15.45060259	     -0.26966389	     15.30179022	    -11.56248599	      5.10120912	     25.53927856	      2.03452528	      2.26679715	    -44.82460798	     -0.78233700	     14.47684619	     18.97154938	     18.33904273	     -4.32185782	      1.90448667	      0.51175387	     -6.19525326	    -13.70872646	      0.84569335	     41.55254901	     89.95437384	      0.00000000	      0.00000000	     -2.34257285	      6.61725105	     13.49932338	     17.98101145	     89.95437384	      0.00000000	      0.00000000
      0.28000000	     -1.87401087	     -2.11781399	      2.72094082	     -0.67221464	      0.90980825	     -0.98773796	     -0.47243747	      5.21409507	    -12.67642959	    -15.43334582	     -0.26936270	     15.59388791	    -11.61134784	      5.00946898	     26.71965606	      2.30393961	      2.57620003	    -43.01212593	     -0.75070322	     14.33146012	     18.96251206	     18.36204956	     -4.16076575	      1.99099964	      0.77066165	     -5.95936698	    -13.84655024	      0.81451547	     42.17192335	     89.95437384	      0.00000000	      0.00000000	     -3.52742918	      6.81446028	     13.65533693	     17.28420616	     89.95437384	      0.00000000	      0.00000000
      0.29000000	     -1.88992748	     -2.24917780	      2.56951052	     -0.66000900	      0.90765478	     -0.98718478	     -1.29731030	      5.42488799	    -12.76374131	    -15.42070513	     -0.26914208	     15.96492449	    -11.64964993	      4.91214948	     27.83209245	      2.53985229	      2.85536962	    -41.11912941	     -0.71766419	     14.05854390	     18.95449998	     18.36716853	     -3.96582115	      2.06016271	      1.00644390	     -5.80307664	    -13.99625812	      0.79853388	     42.88084347	     89.95437384	      0.00000000	      0.00000000	     -4.61662636	      7.00872680	     13.90277555	     16.53262219	     89.95437384	      0.00000000	      0.00000000
      0.30000000	     -0.62538509	     -1.43317618	      1.85248225	     -0.64647267	      0.90794166	     -0.98694412	     -4.11715054	      4.75993466	    -11.20508272	    -14.52356948	     -0.25348411	     16.33967850	    -12.27631375	      4.91710883	     26.39650777	      1.87734646	      3.68428139	    -37.57765493	     -0.65585380	     13.26855309	     18.68997963	     18.28751369	     -5.23998836	      1.17777243	      2.04031851	     -5.80209019	    -14.20171287	      0.63560655	     43.75944480	     89.95437384	      0.00000000	      0.00000000	     -5.00728764	      6.91681068	     16.23128810	     15.01915137	     89.95437384	      0.00000000	      0.00000000
      0.31000000	     -0.44395505	     -1.31304114	      1.68052855	     -0.63387147	      0.90586557	     -0.98687974	     -5.27462543	      4.72981046	    -10.68764502	    -14.37654876	     -0.25091811	     16.78225773	    -12.79901666	      4.87679721	     26.86551663	      1.77107109	      4.02087867	    -34.99022610	     -0.61069465	     12.31946304	     18.45955506	     17.30019757	     -5.26535192	      1.00868422	      2.34716572	     -5.72049988	    -14.42190348	      0.69214137	     44.43663502	     89.95437384	      0.00000000	      0.00000000	     -5.95652600	      7.04170351	     16.95970028	     14.15299060	     89.95437384	      0.00000000	      0.00000000
      0.32000000	     -0.32343582	     -1.30971446	      1.41361776	     -0.62120811	      0.90350510	     -0.98650963	     -6.40025942	      4.85688190	     -9.84760636	    -14.18225282	     -0.24752701	     17.21450541	    -13.37953636	      5.24299018	     27.39544439	      1.98587386	      4.81854775	    -32.42352705	     -0.56589730	     10.52504557	     18.24817490	     12.83558557	     -5.21988827	      0.95239272	      2.74240409	     -5.62741812	    -14.58947327	      0.67809011	     45.03090524	     89.95437384	      0.00000000	      0.00000000	     -6.90048012	      7.15535834	     17.81558520	     13.32168531	     89.95437384	      0.00000000	      0.00000000
